<?xml version="1.0" encoding="UTF-8"?>
<svg id="Layer_1" data-name="Layer 1" xmlns="http://www.w3.org/2000/svg" viewBox="0 0 1003.03 410.97">
  <defs>
    <style>
      .cls-1 {
        fill: #fff;
      }
    </style>
  </defs>
  <path class="cls-1" d="m270.14,328.21c-36.78,0-73.55-.11-110.32.13-4.93.03-6.76-1.36-7.76-6.2-5.4-26.25-11.02-52.46-16.9-78.61-2.68-11.92.69-21.4,9.6-29.4,26.02-23.37,52.09-46.7,77.91-70.3,9.75-8.91,20.2-11.48,32.87-7.29,33.02,10.92,66.13,21.54,99.27,32.09,11.73,3.74,18.88,11.19,21.46,23.3,7.41,34.71,15.03,69.38,22.43,104.09,1.57,7.38,1.74,14.66-2.68,21.52-4.6,7.15-9.98,11.03-19.29,10.89-35.52-.54-71.06-.22-106.6-.22Z"/>
  <path class="cls-1" d="m972.12,300.7c-4.69,4.38-8.5,8.27-12.64,11.74-13.24,11.08-28.57,15.86-45.72,13.89-23-2.64-36.36-17.45-38.91-42.73-2-19.84-.65-39.74-.95-59.6-.18-12.18.13-24.36-.12-36.53-.09-4.22,1.16-5.69,5.45-5.51,7.44.31,14.93.39,22.36-.02,4.97-.28,5.64,1.85,5.61,6.11-.17,24.11-.11,48.21-.06,72.32.01,4.97.09,9.96.59,14.89,1.56,15.58,9.89,22.92,25.61,23.03,15.57.11,25.72-9.04,34.72-20.17,1.73-2.14.85-4.81.85-7.23.06-27.34.21-54.68-.11-82.01-.07-5.64,1.43-7.35,7.01-6.95,6.92.5,13.91.26,20.87.06,3.55-.1,5.34.49,5.32,4.76-.15,43.99-.12,87.98-.03,131.97,0,3.49-.99,5.2-4.64,4.73-.24-.03-.5.01-.74,0-7.1-.55-16.31,3.11-20.73-1.56-3.87-4.09-2.56-13.08-3.72-21.17Z"/>
  <path class="cls-1" d="m772.85,178.79c20.18-.14,38.57,5.85,55.89,15.89,3.36,1.95,4.06,3.3,1.35,6.5-4.01,4.73-6.52,11.58-11.46,14.43-5.66,3.26-10.61-3.96-16.17-5.91-12.87-4.51-25.8-7.09-39.44-5.51-4.01.46-7.84,1.46-11.27,3.56-9.47,5.78-9.29,16.75.49,21.94,7.52,4,15.89,5.61,24.1,7.5,13.31,3.06,26.62,6.05,39.12,11.81,12.75,5.87,21.8,14.55,22.98,29.47,1.27,15.97-5.18,28.2-18.54,36.42-21.06,12.96-44.23,13.75-67.76,9.84-15.54-2.58-30.04-8.43-43.68-16.42-3.88-2.27-5.64-4.06-2.1-8.29,3.96-4.73,6.24-12.31,11.1-14.44,4.73-2.07,10.13,4.63,15.51,6.97,15.8,6.86,32.2,9.92,49.37,8.9,5.51-.33,10.85-1.47,15.6-4.44,10.53-6.56,10.24-18.43-.74-24.21-8.87-4.67-18.67-6.61-28.37-8.74-12.62-2.77-25.2-5.72-36.63-12.06-12.02-6.67-20.24-16.01-20.37-30.58-.13-14.82,6.94-25.58,19.42-32.93,12.81-7.55,26.98-9.58,41.58-9.67Z"/>
  <path class="cls-1" d="m507.29,340.08c-162.54,0-325.09,0-487.63-.08-2.7,0-6.21,1.64-8.06-1.64-2.31-4.1.39-7.4,5.91-7.4,48.46.01,96.93.08,145.39.08,277.12-.02,554.24-.07,831.36.08,2.94,0,8.62-3.43,8.77,4.04.07,3.27-.49,5.34-4.38,4.95-1.97-.2-3.97-.03-5.96-.03-161.8,0-323.6,0-485.39,0Z"/>
  <path class="cls-1" d="m574.71,262.42c15.39.23,30.79.09,46.18.09,12.17,0,24.33,0,36.5,0,17.04,0,17.1,0,17-17.13-.12-21.02-5.87-39.79-22.93-53.45-14.39-11.53-31.37-14.14-49.2-12.88-32.27,2.28-58.05,25.65-64.6,58.44-6.75,33.77,7.94,66.2,37.11,80.37,26.53,12.89,53.39,11.2,79.95-.21,14.77-6.35,14.68-6.55,7.18-20.34-.47-.87-1.04-1.71-1.38-2.63-1.61-4.35-3.68-5.2-8.15-2.7-11.92,6.67-24.84,9.83-38.61,9.08-22.78-1.25-38.69-13.48-43.35-33.04-1.02-4.26-.32-5.67,4.31-5.6Zm-3.41-28.21c5.44-24.12,34.78-37.71,56.57-25.98,10.54,5.68,14.84,15.41,16.76,26.64,1.18,5.49,0,4.03,0,4.03l-37.65-.08c-10.66,0-21.33-.14-31.99.08-3.86.08-4.51-1.05-3.69-4.69Z"/>
  <g>
    <rect class="cls-1" x="408.26" y="81.96" width="20.34" height="27.66" transform="translate(44.98 -115.86) rotate(16.65)"/>
    <rect class="cls-1" x="419.04" y="55.46" width="14.63" height="27.66" transform="translate(37.72 -119.25) rotate(16.65)"/>
  </g>
  <g>
    <rect class="cls-1" x="367.08" y="69.18" width="20.34" height="27.66" transform="translate(39.6 -104.6) rotate(16.65)"/>
    <rect class="cls-1" x="377.86" y="42.68" width="14.63" height="27.66" transform="translate(32.34 -107.98) rotate(16.65)"/>
  </g>
  <g>
    <rect class="cls-1" x="325.24" y="55.33" width="20.34" height="27.66" transform="translate(33.87 -93.2) rotate(16.65)"/>
    <rect class="cls-1" x="336.02" y="28.83" width="14.63" height="27.66" transform="translate(26.61 -96.58) rotate(16.65)"/>
  </g>
  <g>
    <rect class="cls-1" x="283.57" y="41.67" width="20.34" height="27.66" transform="translate(28.21 -81.83) rotate(16.65)"/>
    <rect class="cls-1" x="294.35" y="15.17" width="14.63" height="27.66" transform="translate(20.95 -85.21) rotate(16.65)"/>
  </g>
  <g>
    <rect class="cls-1" x="242.74" y="28.01" width="20.34" height="27.66" transform="translate(22.59 -70.71) rotate(16.65)"/>
    <rect class="cls-1" x="253.52" y="1.52" width="14.63" height="27.66" transform="translate(15.33 -74.09) rotate(16.65)"/>
  </g>
  <g>
    <g>
      <rect class="cls-1" x="480.5" y="294.62" width="20.34" height="27.66" transform="translate(684.74 -237.66) rotate(77.41)"/>
      <rect class="cls-1" x="510.34" y="288.6" width="14.63" height="27.66" transform="translate(699.96 -268.71) rotate(77.41)"/>
    </g>
    <g>
      <rect class="cls-1" x="471.54" y="252.45" width="20.34" height="27.66" transform="translate(636.57 -261.89) rotate(77.41)"/>
      <rect class="cls-1" x="501.38" y="246.42" width="14.63" height="27.66" transform="translate(651.79 -292.95) rotate(77.41)"/>
    </g>
    <g>
      <rect class="cls-1" x="463.19" y="209.18" width="20.34" height="27.66" transform="translate(587.8 -287.58) rotate(77.41)"/>
      <rect class="cls-1" x="493.03" y="203.15" width="14.63" height="27.66" transform="translate(603.03 -318.64) rotate(77.41)"/>
    </g>
    <g>
      <rect class="cls-1" x="454.75" y="166.15" width="20.34" height="27.66" transform="translate(539.21 -313) rotate(77.41)"/>
      <rect class="cls-1" x="484.59" y="160.12" width="14.63" height="27.66" transform="translate(554.44 -344.05) rotate(77.41)"/>
    </g>
    <g>
      <rect class="cls-1" x="446.72" y="123.85" width="20.34" height="27.66" transform="translate(491.65 -338.24) rotate(77.41)"/>
      <rect class="cls-1" x="476.57" y="117.82" width="14.63" height="27.66" transform="translate(506.88 -369.3) rotate(77.41)"/>
    </g>
  </g>
  <g>
    <g>
      <rect class="cls-1" x="180.28" y="39.92" width="20.34" height="27.66" transform="translate(13.37 142.09) rotate(-42.28)"/>
      <rect class="cls-1" x="164.53" y="19.46" width="14.63" height="27.66" transform="translate(22.3 124.26) rotate(-42.28)"/>
    </g>
    <g>
      <rect class="cls-1" x="148.08" y="68.6" width="20.34" height="27.66" transform="translate(-14.29 127.89) rotate(-42.28)"/>
      <rect class="cls-1" x="132.33" y="48.13" width="14.63" height="27.66" transform="translate(-5.36 110.05) rotate(-42.28)"/>
    </g>
    <g>
      <rect class="cls-1" x="114.61" y="97.28" width="20.34" height="27.66" transform="translate(-42.29 112.84) rotate(-42.28)"/>
      <rect class="cls-1" x="98.87" y="76.82" width="14.63" height="27.66" transform="translate(-33.36 95) rotate(-42.28)"/>
    </g>
    <g>
      <rect class="cls-1" x="81.41" y="125.92" width="20.34" height="27.66" transform="translate(-70.19 97.95) rotate(-42.28)"/>
      <rect class="cls-1" x="65.66" y="105.46" width="14.63" height="27.66" transform="translate(-61.26 80.11) rotate(-42.28)"/>
    </g>
    <g>
      <rect class="cls-1" x="48.64" y="153.84" width="20.34" height="27.66" transform="translate(-97.5 83.17) rotate(-42.28)"/>
      <rect class="cls-1" x="32.89" y="133.38" width="14.63" height="27.66" transform="translate(-88.57 65.33) rotate(-42.28)"/>
    </g>
  </g>
  <g>
    <rect class="cls-1" x="31.91" y="208.1" width="20.34" height="27.66" transform="translate(-165.25 311.59) rotate(-102.65)"/>
    <rect class="cls-1" x="7.78" y="214.16" width="14.63" height="27.66" transform="translate(-204.05 292.64) rotate(-102.65)"/>
  </g>
  <g>
    <rect class="cls-1" x="40.92" y="250.26" width="20.34" height="27.66" transform="translate(-195.41 371.77) rotate(-102.65)"/>
    <rect class="cls-1" x="16.79" y="256.32" width="14.63" height="27.66" transform="translate(-234.21 352.83) rotate(-102.65)"/>
  </g>
  <g>
    <rect class="cls-1" x="49.31" y="293.53" width="20.34" height="27.66" transform="translate(-227.39 432.71) rotate(-102.65)"/>
    <rect class="cls-1" x="25.18" y="299.59" width="14.63" height="27.66" transform="translate(-266.2 413.76) rotate(-102.65)"/>
  </g>
  <path class="cls-1" d="m465.54,322.51c-13.62-63.33-27.33-126.64-40.74-190.01-.96-4.52-3.56-5.24-6.91-6.32-60.31-19.44-120.69-38.65-180.8-58.68-10.41-3.47-17.01-2.53-25.32,5.14-46.86,43.25-94.4,85.77-141.75,128.49-2.5,2.26-4.29,4.16-3.42,8.13,8.33,38.07,16.46,76.18,24.59,114.29.65,3.06,1.77,4.76,5.33,4.72,13.15-.17,26.3-.07,40.05-.07-5.7-26.53-10.96-52.52-16.95-78.34-4.6-19.84.44-35.96,15.65-49.48,26.15-23.24,52.02-46.81,77.98-70.27,13.15-11.89,28.13-15.01,44.94-9.6,34.53,11.11,69.07,22.2,103.57,33.41,16.15,5.25,26.53,16.03,30.17,32.83,7.63,35.16,15.23,70.34,22.77,105.52,2.46,11.5,2.08,22.7-4.32,33.08-.5.81-.97,1.72.34,2.84,2.15,0,4.63-.07,7.1.02,2.5.08,3.19-.75,3.16-3.46-.09-7.75,4.04-12.73,10.05-12.89,6.93-.19,11.69,4.5,11.7,12.43,0,2.84.12,4.04,3.25,3.96,6.68-.15,13.36-.05,20.39-.05-.33-2.31-.48-4.02-.84-5.69ZM99.55,226.85c-6.04,0-11.23-4.66-11.53-10.39-.32-6.07,4.95-11.85,10.86-11.93,5.99-.07,11.19,4.74,11.36,10.5.19,6.56-4.55,11.8-10.69,11.81Zm125.33-119.76c-6.2-.08-11.57-5.54-11.23-11.44.35-6.17,5.15-10.85,11.03-10.75,6.2.11,11.17,4.75,11.27,10.51.11,6.13-5.21,11.74-11.06,11.67Zm174.91,56.44c-6.07-.14-11.4-5.69-11.16-11.65.24-5.93,5.33-10.65,11.27-10.46,6.56.21,11.28,5.05,11.15,11.43-.12,5.67-5.54,10.81-11.26,10.68Z"/>
  <g>
    <path class="cls-1" d="m43.24,350.77v4.97h-26.51v15.77h23.69v4.9h-23.69v16.38h27.38v4.97H11.36v-46.98h31.88Z"/>
    <path class="cls-1" d="m59.48,347.95v49.8h-5.23v-49.8h5.23Z"/>
    <path class="cls-1" d="m102.64,382.05h-28.86c.87,6.98,5.91,11.54,12.82,11.54,4.36,0,8.19-1.61,10.94-4.5l2.89,3.02c-3.36,3.69-8.32,5.84-14.23,5.84-10.4,0-17.58-7.31-17.58-17.85s7.25-17.78,17.52-17.85c11.41,0,17.05,7.85,16.51,19.8Zm-4.7-4.16c-.34-6.85-4.9-11.27-11.81-11.27s-11.61,4.43-12.35,11.27h24.16Z"/>
    <path class="cls-1" d="m125.39,366.95c-7.32,0-12.55,5.37-12.55,13.15s5.23,13.22,12.55,13.22c4.63,0,8.46-1.61,10.94-4.56l3.02,3.09c-3.15,3.83-8.05,6.11-14.16,6.11-10.27,0-17.52-7.31-17.52-17.85s7.32-17.85,17.52-17.85c5.71,0,10.4,1.95,13.62,5.23l-2.89,3.62c-2.68-2.62-6.24-4.16-10.54-4.16Z"/>
    <path class="cls-1" d="m166.73,395.33c-2.48,1.68-5.17,2.62-7.99,2.62-5.17.07-8.99-3.02-8.99-10v-20.34h-5.1v-4.09h5.1v-9.26h5.17v9.26h11.21v4.09h-11.21v19.46c0,4.3,1.68,6.04,4.7,6.04,1.81-.07,3.69-.67,5.64-1.81l1.48,4.03Z"/>
    <path class="cls-1" d="m192.17,362.25v5.1c-7.45-.14-12.08,4.5-12.68,11.61v18.79h-5.23v-35.3h5.23v7.85c2.35-5.17,6.71-7.99,12.68-8.05Z"/>
    <path class="cls-1" d="m231.09,380.03c0,10.54-7.45,17.92-17.92,17.92s-17.92-7.38-17.92-17.92,7.38-17.78,17.92-17.78,17.92,7.31,17.92,17.78Zm-30.6.07c0,7.92,5.23,13.29,12.68,13.29s12.68-5.37,12.68-13.29-5.3-13.22-12.68-13.22-12.68,5.44-12.68,13.22Z"/>
    <path class="cls-1" d="m272.24,376.01v21.74h-5.23v-20.4c0-6.31-3.76-10.07-10-10.07-6.98.07-11.28,4.7-11.88,11.54v18.93h-5.23v-35.3h5.23v7.78c2.48-5.37,7.25-7.92,13.69-7.99,8.46,0,13.42,5.17,13.42,13.76Z"/>
    <path class="cls-1" d="m289.49,352.32c0,2.01-1.48,3.56-3.42,3.56s-3.42-1.54-3.42-3.56,1.48-3.56,3.42-3.56,3.42,1.48,3.42,3.56Zm-.81,10.13v35.3h-5.17v-35.3h5.17Z"/>
    <path class="cls-1" d="m315.19,366.95c-7.32,0-12.55,5.37-12.55,13.15s5.23,13.22,12.55,13.22c4.63,0,8.46-1.61,10.94-4.56l3.02,3.09c-3.15,3.83-8.05,6.11-14.16,6.11-10.27,0-17.52-7.31-17.52-17.85s7.32-17.85,17.52-17.85c5.71,0,10.4,1.95,13.62,5.23l-2.89,3.62c-2.68-2.62-6.24-4.16-10.54-4.16Z"/>
    <path class="cls-1" d="m347.34,366.61c-3.96,0-6.98,1.41-6.98,4.76,0,7.99,19.73,3.89,19.73,16.58,0,6.91-6.17,10-12.95,10-5.03,0-10.2-1.74-13.56-4.97l2.01-3.82c3.02,2.82,7.58,4.5,11.74,4.5s7.52-1.61,7.58-5.17c.2-8.59-19.6-4.23-19.53-16.71,0-6.71,5.84-9.6,12.28-9.6,4.23,0,8.32,1.27,11.27,3.22l-2.01,4.03c-2.75-1.74-6.31-2.82-9.6-2.82Z"/>
    <path class="cls-1" d="m402.37,355.8c-6.04,0-10,2.42-10,6.44,0,12.21,26.44,5.84,26.38,22.88,0,7.78-6.91,12.82-16.98,12.82-6.85,0-13.56-2.95-17.99-7.18l2.42-4.63c4.36,4.16,10.34,6.58,15.64,6.58,6.78,0,11.01-2.75,11.01-7.31.07-12.55-26.38-5.91-26.38-22.75,0-7.38,6.51-12.08,16.24-12.08,5.44,0,11.01,1.74,14.9,4.36l-2.28,4.77c-4.23-2.75-9.19-3.89-12.95-3.89Z"/>
    <path class="cls-1" d="m459.28,362.45v35.3h-5.23v-7.99c-2.35,5.5-7.05,8.12-13.42,8.19-8.25,0-13.22-5.23-13.22-13.76v-21.74h5.23v20.4c0,6.31,3.69,10.07,9.8,10.07,7.32-.13,11.61-5.5,11.61-13.15v-17.31h5.23Z"/>
    <path class="cls-1" d="m530.09,376.01v21.74h-5.23v-20.4c0-6.38-3.69-10.13-9.8-10.13-7.31.2-11.54,5.5-11.54,13.16v17.38h-5.3v-20.4c0-6.38-3.62-10.13-9.8-10.13-7.25.2-11.61,5.5-11.61,13.16v17.38h-5.17v-35.3h5.17v7.99c2.35-5.5,7.11-8.12,13.49-8.19,6.64,0,11.21,3.36,12.68,9.19,2.22-6.17,7.18-9.13,13.96-9.19,8.26,0,13.16,5.17,13.16,13.76Z"/>
    <path class="cls-1" d="m599.75,376.01v21.74h-5.23v-20.4c0-6.38-3.69-10.13-9.8-10.13-7.31.2-11.54,5.5-11.54,13.16v17.38h-5.3v-20.4c0-6.38-3.63-10.13-9.8-10.13-7.25.2-11.61,5.5-11.61,13.16v17.38h-5.17v-35.3h5.17v7.99c2.35-5.5,7.11-8.12,13.49-8.19,6.64,0,11.21,3.36,12.68,9.19,2.22-6.17,7.18-9.13,13.96-9.19,8.26,0,13.15,5.17,13.15,13.76Z"/>
    <path class="cls-1" d="m641.43,382.05h-28.86c.87,6.98,5.91,11.54,12.82,11.54,4.36,0,8.19-1.61,10.94-4.5l2.89,3.02c-3.36,3.69-8.32,5.84-14.23,5.84-10.4,0-17.58-7.31-17.58-17.85s7.25-17.78,17.52-17.85c11.41,0,17.05,7.85,16.51,19.8Zm-4.7-4.16c-.33-6.85-4.9-11.27-11.81-11.27s-11.61,4.43-12.35,11.27h24.16Z"/>
    <path class="cls-1" d="m667.94,362.25v5.1c-7.45-.14-12.08,4.5-12.68,11.61v18.79h-5.24v-35.3h5.24v7.85c2.35-5.17,6.71-7.99,12.68-8.05Z"/>
    <path class="cls-1" d="m713.78,393.05c8.93,0,14.3-5.37,14.3-14.63v-27.65h5.37v27.65c0,12.28-7.38,19.53-19.66,19.53s-19.8-7.25-19.8-19.53v-27.65h5.37v27.65c0,9.26,5.5,14.63,14.43,14.63Z"/>
    <path class="cls-1" d="m777.81,376.01v21.74h-5.23v-20.4c0-6.31-3.76-10.07-10-10.07-6.98.07-11.27,4.7-11.88,11.54v18.93h-5.24v-35.3h5.24v7.78c2.48-5.37,7.25-7.92,13.69-7.99,8.46,0,13.42,5.17,13.42,13.76Z"/>
    <path class="cls-1" d="m795.06,352.32c0,2.01-1.48,3.56-3.42,3.56s-3.42-1.54-3.42-3.56,1.48-3.56,3.42-3.56,3.42,1.48,3.42,3.56Zm-.81,10.13v35.3h-5.17v-35.3h5.17Z"/>
    <path class="cls-1" d="m806.07,362.45l11.27,30,11.21-30h5.3l-13.89,35.3h-5.44l-14.03-35.3h5.57Z"/>
    <path class="cls-1" d="m868.95,382.05h-28.86c.87,6.98,5.91,11.54,12.82,11.54,4.36,0,8.19-1.61,10.94-4.5l2.89,3.02c-3.36,3.69-8.32,5.84-14.23,5.84-10.4,0-17.58-7.31-17.58-17.85s7.25-17.78,17.52-17.85c11.41,0,17.05,7.85,16.51,19.8Zm-4.7-4.16c-.33-6.85-4.9-11.27-11.81-11.27s-11.61,4.43-12.35,11.27h24.16Z"/>
    <path class="cls-1" d="m895.46,362.25v5.1c-7.45-.14-12.08,4.5-12.68,11.61v18.79h-5.24v-35.3h5.24v7.85c2.35-5.17,6.71-7.99,12.68-8.05Z"/>
    <path class="cls-1" d="m938.28,352.32c0,2.01-1.48,3.56-3.42,3.56s-3.42-1.54-3.42-3.56,1.48-3.56,3.42-3.56,3.42,1.48,3.42,3.56Zm-.81,10.13v35.3h-5.17v-35.3h5.17Z"/>
    <path class="cls-1" d="m912.24,366.61c-3.96,0-6.98,1.41-6.98,4.76,0,7.99,19.73,3.89,19.73,16.58,0,6.91-6.17,10-12.95,10-5.03,0-10.2-1.74-13.56-4.97l2.01-3.82c3.02,2.82,7.58,4.5,11.75,4.5s7.52-1.61,7.58-5.17c.2-8.59-19.6-4.23-19.53-16.71,0-6.71,5.84-9.6,12.28-9.6,4.23,0,8.32,1.27,11.27,3.22l-2.01,4.03c-2.75-1.74-6.31-2.82-9.6-2.82Z"/>
    <path class="cls-1" d="m967.88,395.33c-2.48,1.68-5.17,2.62-7.99,2.62-5.17.07-8.99-3.02-8.99-10v-20.34h-5.1v-4.09h5.1v-9.26h5.17v9.26h11.21v4.09h-11.21v19.46c0,4.3,1.68,6.04,4.7,6.04,1.81-.07,3.69-.67,5.64-1.81l1.48,4.03Z"/>
    <path class="cls-1" d="m976.07,410.97c-2.95,0-5.3-.81-7.45-2.55l2.21-4.16c1.61,1.14,3.22,1.68,4.97,1.68,2.75,0,5.03-1.75,6.44-5.1l1.48-3.36-14.63-35.03h5.5l11.75,29.4,11.21-29.4h5.37l-16.24,40.33c-2.22,5.37-5.91,8.19-10.6,8.19Z"/>
  </g>
</svg>