<?xml version="1.0" encoding="UTF-8" standalone="no"?>
<svg
   id="Layer_1"
   data-name="Layer 1"
   viewBox="0 0 549.99998 351"
   version="1.1"
   sodipodi:docname="logo_esu_simple.svg"
   width="550"
   height="351"
   inkscape:version="1.3.2 (091e20ef0f, 2023-11-25)"
   xmlns:inkscape="http://www.inkscape.org/namespaces/inkscape"
   xmlns:sodipodi="http://sodipodi.sourceforge.net/DTD/sodipodi-0.dtd"
   xmlns="http://www.w3.org/2000/svg"
   xmlns:svg="http://www.w3.org/2000/svg">
  <sodipodi:namedview
     id="namedview67"
     pagecolor="#505050"
     bordercolor="#eeeeee"
     borderopacity="1"
     inkscape:showpageshadow="0"
     inkscape:pageopacity="0"
     inkscape:pagecheckerboard="0"
     inkscape:deskcolor="#505050"
     inkscape:zoom="1.2352571"
     inkscape:cx="247.7217"
     inkscape:cy="208.05385"
     inkscape:window-width="1876"
     inkscape:window-height="1036"
     inkscape:window-x="0"
     inkscape:window-y="0"
     inkscape:window-maximized="1"
     inkscape:current-layer="Layer_1" />
  <defs
     id="defs1">
    <style
       id="style1">
      .cls-1 {
        fill: #fff;
      }
    </style>
  </defs>
  <path
     class="cls-1"
     d="m 278.27659,333.65864 c -36.78,0 -73.55,-0.11 -110.32,0.13 -4.93,0.03 -6.76,-1.36 -7.76,-6.2 -5.4,-26.25 -11.02,-52.46 -16.9,-78.61 -2.68,-11.92 0.69,-21.4 9.6,-29.4 26.02,-23.37 52.09,-46.7 77.91,-70.3 9.75,-8.91 20.2,-11.48 32.87,-7.29 33.02,10.92 66.13,21.54 99.27,32.09 11.73,3.74 18.88,11.19 21.46,23.3 7.41,34.71 15.03,69.38 22.43,104.09 1.57,7.38 1.74,14.66 -2.68,21.52 -4.6,7.15 -9.98,11.03 -19.29,10.89 -35.52,-0.54 -71.06,-0.22 -106.6,-0.22 z"
     id="path1" />
  <g
     id="g6"
     transform="translate(8.1365903,5.4486378)">
    <rect
       class="cls-1"
       x="408.26001"
       y="81.959999"
       width="20.34"
       height="27.66"
       transform="rotate(16.65,418.37636,95.763843)"
       id="rect5" />
    <rect
       class="cls-1"
       x="419.04001"
       y="55.459999"
       width="14.63"
       height="27.66"
       transform="rotate(16.65,426.32978,69.261877)"
       id="rect6" />
  </g>
  <g
     id="g8"
     transform="translate(8.1365903,5.4486378)">
    <rect
       class="cls-1"
       x="367.07999"
       y="69.18"
       width="20.34"
       height="27.66"
       transform="rotate(16.65,377.21165,83.01072)"
       id="rect7" />
    <rect
       class="cls-1"
       x="377.85999"
       y="42.68"
       width="14.63"
       height="27.66"
       transform="rotate(16.65,385.1309,56.513754)"
       id="rect8" />
  </g>
  <g
     id="g10"
     transform="translate(8.1365903,5.4486378)">
    <rect
       class="cls-1"
       x="325.23999"
       y="55.330002"
       width="20.34"
       height="27.66"
       transform="rotate(16.65,335.39356,69.131668)"
       id="rect9" />
    <rect
       class="cls-1"
       x="336.01999"
       y="28.83"
       width="14.63"
       height="27.66"
       transform="rotate(16.65,343.31281,42.634703)"
       id="rect10" />
  </g>
  <g
     id="g12"
     transform="translate(8.1365903,5.4486378)">
    <rect
       class="cls-1"
       x="283.57001"
       y="41.669998"
       width="20.34"
       height="27.66"
       transform="rotate(16.65,293.71298,55.476803)"
       id="rect11" />
    <rect
       class="cls-1"
       x="294.35001"
       y="15.17"
       width="14.63"
       height="27.66"
       transform="rotate(16.65,301.63223,28.979838)"
       id="rect12" />
  </g>
  <g
     id="g14"
     transform="translate(8.1365903,5.4486378)">
    <rect
       class="cls-1"
       x="242.74001"
       y="28.01"
       width="20.34"
       height="27.66"
       transform="rotate(16.65,252.90664,41.833615)"
       id="rect13" />
    <rect
       class="cls-1"
       x="253.52"
       y="1.52"
       width="14.63"
       height="27.66"
       transform="rotate(16.65,260.82589,15.33665)"
       id="rect14" />
  </g>
  <g
     id="g25"
     transform="translate(8.1365903,5.4486378)">
    <g
       id="g16">
      <rect
         class="cls-1"
         x="480.5"
         y="294.62"
         width="20.34"
         height="27.66"
         transform="rotate(77.41,490.66756,308.4412)"
         id="rect15" />
      <rect
         class="cls-1"
         x="510.34"
         y="288.60001"
         width="14.63"
         height="27.66"
         transform="rotate(77.41,517.65246,302.41333)"
         id="rect16" />
    </g>
    <g
       id="g18">
      <rect
         class="cls-1"
         x="471.54001"
         y="252.45"
         width="20.34"
         height="27.66"
         transform="rotate(77.41,481.70185,266.26858)"
         id="rect17" />
      <rect
         class="cls-1"
         x="501.38"
         y="246.42"
         width="14.63"
         height="27.66"
         transform="rotate(77.41,508.69299,260.23571)"
         id="rect18" />
    </g>
    <g
       id="g20">
      <rect
         class="cls-1"
         x="463.19"
         y="209.17999"
         width="20.34"
         height="27.66"
         transform="rotate(77.41,473.34716,222.99157)"
         id="rect19" />
      <rect
         class="cls-1"
         x="493.03"
         y="203.14999"
         width="14.63"
         height="27.66"
         transform="rotate(77.41,500.34331,216.96494)"
         id="rect20" />
    </g>
    <g
       id="g22">
      <rect
         class="cls-1"
         x="454.75"
         y="166.14999"
         width="20.34"
         height="27.66"
         transform="rotate(77.41,464.914,179.96187)"
         id="rect21" />
      <rect
         class="cls-1"
         x="484.59"
         y="160.12"
         width="14.63"
         height="27.66"
         transform="rotate(77.41,491.9039,173.94025)"
         id="rect22" />
    </g>
    <g
       id="g24">
      <rect
         class="cls-1"
         x="446.72"
         y="123.85"
         width="20.34"
         height="27.66"
         transform="rotate(77.41,456.88352,137.66489)"
         id="rect23" />
      <rect
         class="cls-1"
         x="476.57001"
         y="117.82"
         width="14.63"
         height="27.66"
         transform="rotate(77.41,483.87966,131.63826)"
         id="rect24" />
    </g>
  </g>
  <g
     id="g35"
     transform="translate(8.1365903,5.4486378)">
    <g
       id="g26">
      <rect
         class="cls-1"
         x="180.28"
         y="39.919998"
         width="20.34"
         height="27.66"
         transform="rotate(-42.28,190.4204,53.756364)"
         id="rect25" />
      <rect
         class="cls-1"
         x="164.53"
         y="19.459999"
         width="14.63"
         height="27.66"
         transform="rotate(-42.28,171.82957,33.294055)"
         id="rect26" />
    </g>
    <g
       id="g28">
      <rect
         class="cls-1"
         x="148.08"
         y="68.599998"
         width="20.34"
         height="27.66"
         transform="rotate(-42.28,158.2285,82.42328)"
         id="rect27" />
      <rect
         class="cls-1"
         x="132.33"
         y="48.130001"
         width="14.63"
         height="27.66"
         transform="rotate(-42.28,139.62474,61.955971)"
         id="rect28" />
    </g>
    <g
       id="g30">
      <rect
         class="cls-1"
         x="114.61"
         y="97.279999"
         width="20.34"
         height="27.66"
         transform="rotate(-42.28,124.76747,111.10485)"
         id="rect29" />
      <rect
         class="cls-1"
         x="98.870003"
         y="76.82"
         width="14.63"
         height="27.66"
         transform="rotate(-42.28,106.16371,90.637539)"
         id="rect30" />
    </g>
    <g
       id="g32">
      <rect
         class="cls-1"
         x="81.410004"
         y="125.92"
         width="20.34"
         height="27.66"
         transform="rotate(-42.28,91.563331,139.73711)"
         id="rect31" />
      <rect
         class="cls-1"
         x="65.660004"
         y="105.46"
         width="14.63"
         height="27.66"
         transform="rotate(-42.28,72.959576,119.2698)"
         id="rect32" />
    </g>
    <g
       id="g34">
      <rect
         class="cls-1"
         x="48.639999"
         y="153.84"
         width="20.34"
         height="27.66"
         transform="rotate(-42.28,58.796436,167.66144)"
         id="rect33" />
      <rect
         class="cls-1"
         x="32.889999"
         y="133.38"
         width="14.63"
         height="27.66"
         transform="rotate(-42.28,40.19268,147.19413)"
         id="rect34" />
    </g>
  </g>
  <g
     id="g36"
     transform="translate(8.1365903,5.4486378)">
    <rect
       class="cls-1"
       x="31.91"
       y="208.10001"
       width="20.34"
       height="27.66"
       transform="rotate(-102.65,42.07876,221.93094)"
       id="rect35" />
    <rect
       class="cls-1"
       x="7.7800002"
       y="214.16"
       width="14.63"
       height="27.66"
       transform="rotate(-102.65,15.094639,227.98437)"
       id="rect36" />
  </g>
  <g
     id="g38"
     transform="translate(8.1365903,5.4486378)">
    <rect
       class="cls-1"
       x="40.919998"
       y="250.25999"
       width="20.34"
       height="27.66"
       transform="rotate(-102.65,51.083847,264.0915)"
       id="rect37" />
    <rect
       class="cls-1"
       x="16.790001"
       y="256.32001"
       width="14.63"
       height="27.66"
       transform="rotate(-102.65,24.103728,270.14993)"
       id="rect38" />
  </g>
  <g
     id="g40"
     transform="translate(8.1365903,5.4486378)">
    <rect
       class="cls-1"
       x="49.310001"
       y="293.53"
       width="20.34"
       height="27.66"
       transform="rotate(-102.65,59.4831,307.36045)"
       id="rect39" />
    <rect
       class="cls-1"
       x="25.18"
       y="299.59"
       width="14.63"
       height="27.66"
       transform="rotate(-102.65,32.493979,313.41789)"
       id="rect40" />
  </g>
  <path
     class="cls-1"
     d="m 473.67659,327.95864 c -13.62,-63.33 -27.33,-126.64 -40.74,-190.01 -0.96,-4.52 -3.56,-5.24 -6.91,-6.32 -60.31,-19.44 -120.69,-38.650002 -180.8,-58.680002 -10.41,-3.47 -17.01,-2.53 -25.32,5.14 -46.86,43.250002 -94.4,85.770002 -141.75,128.490002 -2.5,2.26 -4.29,4.16 -3.42,8.13 8.33,38.07 16.46,76.18 24.59,114.29 0.65,3.06 1.77,4.76 5.33,4.72 13.15,-0.17 26.3,-0.07 40.05,-0.07 -5.7,-26.53 -10.96,-52.52 -16.95,-78.34 -4.6,-19.84 0.44,-35.96 15.65,-49.48 26.15,-23.24 52.02,-46.81 77.98,-70.27 13.15,-11.89 28.13,-15.01 44.94,-9.6 34.53,11.11 69.07,22.2 103.57,33.41 16.15,5.25 26.53,16.03 30.17,32.83 7.63,35.16 15.23,70.34 22.77,105.52 2.46,11.5 2.08,22.7 -4.32,33.08 -0.5,0.81 -0.97,1.72 0.34,2.84 2.15,0 4.63,-0.07 7.1,0.02 2.5,0.08 3.19,-0.75 3.16,-3.46 -0.09,-7.75 4.04,-12.73 10.05,-12.89 6.93,-0.19 11.69,4.5 11.7,12.43 0,2.84 0.12,4.04 3.25,3.96 6.68,-0.15 13.36,-0.05 20.39,-0.05 -0.33,-2.31 -0.48,-4.02 -0.84,-5.69 z m -365.99,-95.66 c -6.04,0 -11.23,-4.66 -11.53,-10.39 -0.32,-6.07 4.95,-11.85 10.86,-11.93 5.99,-0.07 11.19,4.74 11.36,10.5 0.19,6.56 -4.55,11.8 -10.69,11.81 z m 125.33,-119.76 c -6.2,-0.08 -11.57,-5.54 -11.23,-11.44 0.35,-6.170002 5.15,-10.850002 11.03,-10.750002 6.2,0.11 11.17,4.75 11.27,10.510002 0.11,6.13 -5.21,11.74 -11.06,11.67 z m 174.91,56.44 c -6.07,-0.14 -11.4,-5.69 -11.16,-11.65 0.24,-5.93 5.33,-10.65 11.27,-10.46 6.56,0.21 11.28,5.05 11.15,11.43 -0.12,5.67 -5.54,10.81 -11.26,10.68 z"
     id="path40" />
</svg>
